<svg id="svg" version="1.1" xmlns="http://www.w3.org/2000/svg" xmlns:xlink="http://www.w3.org/1999/xlink" width="400" height="350.0467726847521" viewBox="0, 0, 400,350.0467726847521"><g id="svgg"><path id="path0" d="M189.710 0.498 C 180.731 0.972,175.798 1.390,168.852 2.265 C 105.091 10.303,49.556 43.504,20.862 90.739 C -10.793 142.848,-5.531 205.563,34.498 253.258 C 35.847 254.865,37.072 256.345,37.220 256.547 C 37.884 257.452,36.250 267.675,34.311 274.743 C 29.289 293.047,18.038 312.993,4.377 327.811 C -0.969 333.610,-1.111 340.879,4.020 346.040 C 7.887 349.929,12.521 350.517,26.660 348.911 C 54.155 345.789,89.599 331.483,116.273 312.742 L 118.853 310.929 124.487 312.794 C 235.481 349.526,361.430 299.024,392.724 205.239 C 419.254 125.732,368.608 42.851,274.649 12.012 C 248.315 3.368,216.647 -0.925,189.710 0.498 " stroke="none" fill="#7484a4" fill-rule="evenodd"></path><path id="path1" d="" stroke="none" fill="#7884a4" fill-rule="evenodd"></path><path id="path2" d="" stroke="none" fill="#7884a4" fill-rule="evenodd"></path><path id="path3" d="" stroke="none" fill="#7884a4" fill-rule="evenodd"></path><path id="path4" d="" stroke="none" fill="#7884a4" fill-rule="evenodd"></path></g></svg>