<svg id="svg" version="1.1" xmlns="http://www.w3.org/2000/svg" xmlns:xlink="http://www.w3.org/1999/xlink" width="400" height="350.0899820035993" viewBox="0, 0, 400,350.0899820035993"><g id="svgg"><path id="path0" d="M195.561 0.155 C 149.018 1.403,107.611 13.959,72.585 37.446 C -6.638 90.571,-23.123 184.201,34.526 253.600 L 37.193 256.810 37.190 258.159 C 37.187 259.735,36.511 264.247,35.639 268.506 C 31.635 288.066,20.592 309.221,5.360 326.511 C -0.377 333.023,-1.406 338.694,2.174 344.056 C 5.249 348.661,8.697 349.987,17.037 349.772 C 46.069 349.022,87.592 333.549,116.822 312.586 L 118.828 311.148 124.501 312.980 C 164.922 326.033,206.463 328.471,247.750 320.214 C 337.549 302.254,399.638 237.861,399.640 162.687 C 399.641 114.320,374.569 70.056,329.443 38.759 C 292.869 13.393,242.584 -1.106,195.561 0.155 " stroke="none" fill="#3404d4" fill-rule="evenodd"></path><path id="path1" d="" stroke="none" fill="#3804d4" fill-rule="evenodd"></path><path id="path2" d="" stroke="none" fill="#3804d4" fill-rule="evenodd"></path><path id="path3" d="" stroke="none" fill="#3804d4" fill-rule="evenodd"></path><path id="path4" d="" stroke="none" fill="#3804d4" fill-rule="evenodd"></path></g></svg>