<svg id="svg" version="1.1" xmlns="http://www.w3.org/2000/svg" xmlns:xlink="http://www.w3.org/1999/xlink" width="400" height="457.08177445216467" viewBox="0, 0, 400,457.08177445216467"><g id="svgg"><path id="path0" d="M141.208 0.782 C 135.636 1.785,130.315 4.581,126.229 8.652 C 123.291 11.580,121.993 13.634,117.881 21.854 L 114.380 28.853 69.537 28.919 L 24.693 28.984 22.875 29.438 C 9.145 32.864,0.433 43.769,0.428 57.535 C 0.424 72.364,11.319 84.418,26.099 85.935 C 29.130 86.246,370.870 86.246,373.901 85.935 C 388.681 84.418,399.576 72.364,399.572 57.535 C 399.567 43.769,390.855 32.864,377.125 29.438 L 375.307 28.984 330.463 28.919 L 285.620 28.853 282.119 21.854 C 278.007 13.634,276.709 11.580,273.771 8.652 C 269.611 4.507,264.309 1.754,258.578 0.762 C 255.782 0.278,143.901 0.297,141.208 0.782 M28.862 114.598 C 28.862 116.940,47.992 419.651,48.223 420.951 C 51.443 439.142,64.376 452.199,83.109 456.172 C 85.170 456.609,310.705 456.872,314.484 456.442 C 333.335 454.296,348.428 439.933,351.778 420.951 C 352.007 419.652,371.138 116.927,371.138 114.598 C 371.138 114.447,317.485 114.377,200.000 114.377 C 82.515 114.377,28.862 114.447,28.862 114.598 " stroke="none" fill="#7484a4" fill-rule="evenodd"></path><path id="path1" d="" stroke="none" fill="#7884a4" fill-rule="evenodd"></path><path id="path2" d="" stroke="none" fill="#7884a4" fill-rule="evenodd"></path><path id="path3" d="" stroke="none" fill="#7884a4" fill-rule="evenodd"></path><path id="path4" d="" stroke="none" fill="#7884a4" fill-rule="evenodd"></path></g></svg>