<svg id="svg" version="1.1" xmlns="http://www.w3.org/2000/svg" xmlns:xlink="http://www.w3.org/1999/xlink" width="400" height="457.10857828434314" viewBox="0, 0, 400,457.10857828434314"><g id="svgg"><path id="path0" d="M152.969 0.481 L 140.492 0.622 138.435 1.257 C 128.592 4.298,124.395 8.566,117.198 22.855 L 114.207 28.794 69.561 28.794 C 19.734 28.794,24.213 28.652,19.377 30.389 C -8.389 40.362,-4.939 80.598,24.129 85.800 C 27.845 86.465,372.155 86.465,375.871 85.800 C 404.939 80.598,408.389 40.362,380.623 30.389 C 375.787 28.652,380.266 28.794,330.439 28.794 L 285.793 28.794 282.802 22.855 C 275.541 8.440,271.059 3.952,261.137 1.166 C 258.231 0.350,198.238 -0.030,152.969 0.481 M43.217 114.397 L 28.726 114.461 28.892 117.398 C 29.397 126.346,36.612 241.261,42.117 328.014 C 48.611 430.368,47.957 421.347,49.204 425.795 C 53.398 440.763,64.780 451.558,80.864 455.824 L 83.143 456.429 138.692 456.636 C 264.886 457.105,314.827 456.885,319.136 455.841 C 334.133 452.206,345.754 441.486,350.405 426.995 C 351.813 422.609,351.958 421.219,353.459 397.600 C 354.243 385.261,355.801 360.750,356.922 343.131 C 361.825 266.058,370.613 126.222,371.106 117.436 L 371.269 114.537 349.602 114.377 C 329.815 114.231,77.169 114.248,43.217 114.397 " stroke="none" fill="#3404d4" fill-rule="evenodd"></path><path id="path1" d="" stroke="none" fill="#3804d4" fill-rule="evenodd"></path><path id="path2" d="" stroke="none" fill="#3804d4" fill-rule="evenodd"></path><path id="path3" d="" stroke="none" fill="#3804d4" fill-rule="evenodd"></path><path id="path4" d="" stroke="none" fill="#3804d4" fill-rule="evenodd"></path></g></svg>