<svg id="svg" version="1.1" xmlns="http://www.w3.org/2000/svg" xmlns:xlink="http://www.w3.org/1999/xlink" width="400" height="457.10857828434314" viewBox="0, 0, 400,457.10857828434314"><g id="svgg"><path id="path0" d="M335.946 28.830 C 329.273 29.527,321.980 32.167,316.221 35.971 C 313.438 37.808,309.465 41.526,294.301 56.477 L 285.423 65.231 324.235 104.061 L 363.046 142.890 373.988 131.973 C 389.990 116.007,391.784 113.959,394.800 108.218 C 402.306 93.930,401.264 76.216,392.117 62.607 C 389.125 58.154,371.533 40.416,366.589 36.866 C 358.092 30.765,346.508 27.727,335.946 28.830 M70.786 75.121 C 35.631 76.820,7.027 103.490,0.808 140.372 C 0.307 143.341,-0.013 339.606,0.458 354.649 C 1.551 389.539,24.323 417.820,57.948 426.048 C 67.127 428.294,65.455 428.263,177.085 428.262 C 271.277 428.261,285.530 428.137,290.235 427.280 C 322.678 421.370,345.719 398.605,352.397 365.863 C 353.292 361.476,353.485 350.247,353.392 307.978 L 353.314 272.226 352.795 270.381 C 346.521 248.053,315.903 244.492,305.586 264.891 C 302.646 270.703,302.812 267.829,302.666 315.417 C 302.544 355.225,302.530 356.249,302.064 357.888 C 299.360 367.395,293.657 373.425,284.583 376.373 L 282.543 377.036 259.148 377.219 C 228.738 377.459,126.995 377.458,95.621 377.219 L 71.146 377.033 69.106 376.376 C 60.295 373.540,54.116 366.997,51.710 357.957 L 51.107 355.691 51.168 251.331 L 51.230 146.971 51.873 144.642 C 54.314 135.806,60.580 129.426,69.466 126.727 L 71.866 125.999 113.857 125.771 C 160.443 125.519,156.982 125.657,161.325 123.869 C 183.329 114.809,181.745 82.891,158.944 75.910 L 156.809 75.256 140.852 75.089 C 120.035 74.871,75.542 74.891,70.786 75.121 M219.388 131.434 C 128.847 222.115,130.932 219.954,127.754 226.395 C 126.233 229.477,102.309 300.455,101.468 304.379 C 98.854 316.583,109.139 328.467,121.428 327.442 C 123.646 327.257,123.228 327.387,150.330 318.492 C 198.586 302.655,201.780 301.485,207.545 297.537 C 210.851 295.272,345.291 161.488,345.291 160.462 C 345.291 160.024,268.425 83.023,267.988 83.023 C 267.843 83.023,245.973 104.808,219.388 131.434 " stroke="none" fill="#3404d4" fill-rule="evenodd"></path><path id="path1" d="" stroke="none" fill="#3804d4" fill-rule="evenodd"></path><path id="path2" d="" stroke="none" fill="#3804d4" fill-rule="evenodd"></path><path id="path3" d="" stroke="none" fill="#3804d4" fill-rule="evenodd"></path><path id="path4" d="" stroke="none" fill="#3804d4" fill-rule="evenodd"></path></g></svg>