<svg id="svg" version="1.1" xmlns="http://www.w3.org/2000/svg" xmlns:xlink="http://www.w3.org/1999/xlink" width="400" height="457.08177445216467" viewBox="0, 0, 400,457.08177445216467"><g id="svgg"><path id="path0" d="M336.932 28.874 C 328.694 29.591,320.781 32.618,314.128 37.597 C 312.941 38.485,307.292 43.898,298.928 52.159 L 285.617 65.307 324.315 104.005 L 363.014 142.704 375.324 130.411 C 382.094 123.650,388.390 117.220,389.315 116.121 C 402.555 100.387,403.189 77.639,390.850 61.002 C 389.386 59.027,374.139 43.489,370.176 39.934 C 361.294 31.963,348.883 27.834,336.932 28.874 M70.230 75.184 C 33.150 78.316,4.510 106.397,0.602 143.453 C 0.184 147.420,0.186 355.916,0.604 359.701 C 4.668 396.453,31.981 423.766,68.733 427.830 C 72.518 428.248,281.014 428.250,284.981 427.831 C 320.697 424.065,347.571 397.997,352.904 361.945 C 353.451 358.250,353.604 275.764,353.070 272.530 C 348.915 247.348,313.471 243.859,304.477 267.746 C 302.717 272.418,302.868 268.342,302.734 315.019 L 302.615 356.494 302.049 358.525 C 299.346 368.241,292.234 374.954,282.416 377.056 C 279.542 377.671,73.999 377.662,71.192 377.047 C 61.216 374.859,53.986 367.761,51.456 357.670 L 51.000 355.852 50.932 253.020 C 50.883 179.878,50.931 149.591,51.096 148.124 C 52.287 137.567,59.444 129.297,69.909 126.385 L 71.940 125.819 113.415 125.700 C 160.092 125.566,156.016 125.717,160.688 123.957 C 184.541 114.976,181.125 79.686,155.985 75.366 C 154.250 75.068,73.630 74.897,70.230 75.184 M200.628 150.454 C 152.886 198.311,133.096 218.284,132.105 219.611 C 130.177 222.194,128.248 225.453,127.072 228.113 C 126.043 230.443,102.780 299.846,101.876 303.285 C 98.348 316.700,109.516 329.215,123.143 327.119 C 124.881 326.851,194.951 303.634,199.145 301.935 C 202.724 300.486,205.435 298.935,209.086 296.247 C 211.115 294.753,345.270 160.979,345.270 160.450 C 345.270 160.165,268.263 83.164,267.978 83.164 C 267.857 83.164,237.549 113.445,200.628 150.454 " stroke="none" fill="#7484a4" fill-rule="evenodd"></path><path id="path1" d="" stroke="none" fill="#7884a4" fill-rule="evenodd"></path><path id="path2" d="" stroke="none" fill="#7884a4" fill-rule="evenodd"></path><path id="path3" d="" stroke="none" fill="#7884a4" fill-rule="evenodd"></path><path id="path4" d="" stroke="none" fill="#7884a4" fill-rule="evenodd"></path></g></svg>