<svg id="svg" version="1.1" xmlns="http://www.w3.org/2000/svg" xmlns:xlink="http://www.w3.org/1999/xlink" width="400" height="355.6088782243551" viewBox="0, 0, 400,355.6088782243551"><g id="svgg"><path id="path0" d="M195.201 0.360 C 191.341 1.069,188.430 2.428,185.746 4.775 C 184.901 5.514,183.383 6.821,182.373 7.678 C 181.363 8.536,179.679 10.013,178.631 10.960 C 177.582 11.908,172.082 16.708,166.407 21.628 C 150.267 35.621,123.783 58.691,112.058 68.972 C 96.378 82.719,92.109 86.446,88.679 89.382 C 86.983 90.834,84.308 93.155,82.735 94.541 C 81.162 95.927,79.184 97.654,78.338 98.380 C 77.493 99.106,75.259 101.048,73.374 102.694 C 71.488 104.341,62.927 111.790,54.349 119.247 C 5.405 161.793,6.153 161.128,4.310 163.725 C 1.330 167.923,0.465 170.632,0.315 176.245 C 0.108 183.971,1.723 188.611,6.170 193.060 C 12.428 199.322,14.711 199.878,34.167 199.879 L 44.698 199.880 44.540 258.248 C 44.449 291.952,44.475 320.166,44.601 325.015 L 44.821 333.413 45.592 335.693 C 49.235 346.461,57.590 353.708,67.984 355.115 C 70.574 355.465,129.786 355.465,132.376 355.115 C 142.846 353.697,151.677 345.901,154.918 335.213 C 155.803 332.292,155.933 326.934,155.953 292.397 C 155.971 260.094,155.823 262.909,157.753 258.125 C 160.056 252.416,165.006 247.926,171.440 245.713 C 174.139 244.784,176.256 244.720,201.680 244.797 L 226.155 244.871 228.074 245.525 C 235.405 248.021,239.772 252.093,242.671 259.133 C 243.955 262.252,244.002 263.515,244.035 295.621 C 244.067 327.731,244.183 332.029,245.107 335.213 C 248.155 345.723,257.182 353.701,267.624 355.115 C 270.053 355.444,329.536 355.453,332.064 355.124 C 344.119 353.559,353.902 343.338,355.417 330.727 C 355.768 327.808,355.840 233.399,355.508 211.578 L 355.330 199.880 366.927 199.878 C 373.306 199.877,379.446 199.770,380.572 199.641 C 387.579 198.838,394.195 194.042,397.488 187.378 C 397.970 186.402,398.457 185.425,398.570 185.207 C 399.839 182.754,400.263 173.859,399.267 170.606 C 397.998 166.464,394.682 162.404,388.002 156.814 C 386.749 155.765,383.401 152.846,380.564 150.327 C 374.682 145.105,345.766 119.650,332.334 107.868 C 327.385 103.528,321.670 98.511,319.634 96.719 C 317.599 94.927,314.785 92.490,313.382 91.302 C 310.786 89.104,305.081 84.086,295.378 75.465 C 291.174 71.730,236.162 23.372,218.093 7.527 C 210.575 0.935,203.736 -1.206,195.201 0.360 " stroke="none" fill="#3404d4" fill-rule="evenodd"></path><path id="path1" d="" stroke="none" fill="#3804d4" fill-rule="evenodd"></path><path id="path2" d="" stroke="none" fill="#3804d4" fill-rule="evenodd"></path><path id="path3" d="" stroke="none" fill="#3804d4" fill-rule="evenodd"></path><path id="path4" d="" stroke="none" fill="#3804d4" fill-rule="evenodd"></path></g></svg>