<svg id="svg" version="1.1" xmlns="http://www.w3.org/2000/svg" xmlns:xlink="http://www.w3.org/1999/xlink" width="400" height="355.7404326123128" viewBox="0, 0, 400,355.7404326123128"><g id="svgg"><path id="path0" d="M196.208 0.279 C 195.819 0.319,195.500 0.416,195.500 0.493 C 195.500 0.571,195.031 0.682,194.458 0.740 C 193.171 0.870,192.000 1.163,192.000 1.353 C 192.000 1.432,191.695 1.545,191.322 1.604 C 190.949 1.664,190.537 1.820,190.407 1.950 C 190.276 2.081,190.094 2.141,190.001 2.084 C 189.909 2.027,189.833 2.072,189.833 2.185 C 189.833 2.297,189.788 2.343,189.732 2.288 C 189.677 2.232,189.478 2.330,189.290 2.504 C 189.103 2.679,188.886 2.782,188.808 2.734 C 188.730 2.686,188.667 2.731,188.667 2.833 C 188.667 2.936,188.592 2.973,188.500 2.917 C 188.408 2.860,188.333 2.884,188.333 2.970 C 188.333 3.056,188.113 3.217,187.844 3.329 C 187.575 3.440,187.050 3.813,186.677 4.157 C 186.305 4.501,186.000 4.753,186.000 4.716 C 186.000 4.680,185.625 5.025,185.167 5.483 C 184.710 5.941,184.228 6.376,184.098 6.450 C 183.750 6.647,179.185 10.641,178.471 11.372 C 178.135 11.718,177.813 12.000,177.756 12.000 C 177.663 12.000,114.606 66.910,113.417 68.026 C 113.142 68.284,111.705 69.542,110.224 70.821 C 108.743 72.100,107.280 73.394,106.971 73.698 C 106.663 74.002,105.887 74.672,105.247 75.188 C 104.607 75.703,103.735 76.472,103.308 76.896 C 102.882 77.320,102.496 77.667,102.450 77.667 C 102.404 77.667,102.108 77.910,101.792 78.208 C 100.717 79.222,96.121 83.234,88.813 89.540 C 88.573 89.747,87.942 90.292,87.411 90.750 C 86.880 91.208,86.295 91.752,86.110 91.958 C 85.925 92.165,85.683 92.333,85.573 92.333 C 85.462 92.333,85.101 92.634,84.769 93.000 C 84.438 93.367,84.167 93.614,84.167 93.549 C 84.167 93.484,83.906 93.690,83.587 94.007 C 83.268 94.324,82.762 94.783,82.462 95.026 C 80.928 96.272,79.167 97.885,79.167 98.043 C 79.167 98.142,79.120 98.176,79.064 98.119 C 78.951 98.007,76.496 100.114,75.863 100.866 C 75.647 101.123,75.402 101.333,75.319 101.333 C 75.208 101.333,39.124 132.728,13.500 155.118 C 13.179 155.399,11.642 156.740,10.083 158.099 C 7.230 160.587,5.048 162.753,5.125 163.022 C 5.148 163.101,5.090 163.167,4.996 163.167 C 4.903 163.167,4.529 163.635,4.166 164.208 C 3.804 164.781,3.435 165.336,3.347 165.441 C 3.259 165.545,3.232 165.677,3.288 165.732 C 3.343 165.788,3.289 165.833,3.167 165.833 C 3.044 165.833,2.994 165.883,3.055 165.944 C 3.115 166.004,2.981 166.295,2.756 166.590 C 2.532 166.884,2.395 167.172,2.452 167.229 C 2.509 167.287,2.464 167.333,2.351 167.333 C 2.239 167.333,2.195 167.412,2.255 167.507 C 2.314 167.603,2.285 167.774,2.192 167.886 C 2.098 167.999,1.895 168.465,1.741 168.921 C 1.587 169.377,1.399 169.789,1.323 169.837 C 1.247 169.886,1.102 170.446,1.000 171.083 C 0.898 171.720,0.725 172.297,0.616 172.365 C 0.339 172.536,0.330 182.124,0.606 182.298 C 0.711 182.363,0.876 182.935,0.975 183.569 C 1.073 184.203,1.227 184.768,1.317 184.823 C 1.407 184.879,1.575 185.298,1.690 185.754 C 1.806 186.210,1.997 186.702,2.117 186.847 C 2.236 186.992,2.284 187.161,2.223 187.222 C 2.161 187.283,2.211 187.333,2.333 187.333 C 2.456 187.333,2.510 187.379,2.454 187.435 C 2.398 187.491,2.536 187.828,2.762 188.185 C 2.987 188.542,3.129 188.833,3.077 188.833 C 3.025 188.833,3.174 189.084,3.408 189.391 C 3.642 189.697,3.833 190.020,3.833 190.107 C 3.833 190.762,7.805 194.765,9.764 196.085 C 14.897 199.546,16.632 199.831,32.545 199.832 L 44.674 199.833 44.629 265.208 C 44.579 337.425,44.497 331.460,45.584 335.252 C 46.686 339.100,48.990 343.530,50.754 345.194 C 51.073 345.494,51.333 345.804,51.333 345.883 C 51.333 346.281,55.782 350.333,56.219 350.333 C 56.329 350.333,56.617 350.516,56.859 350.740 C 57.100 350.964,57.343 351.101,57.399 351.046 C 57.454 350.990,57.500 351.028,57.500 351.130 C 57.500 351.232,57.894 351.513,58.375 351.754 C 58.856 351.996,59.482 352.336,59.766 352.511 C 60.050 352.686,60.331 352.780,60.391 352.720 C 60.451 352.660,60.500 352.703,60.500 352.815 C 60.500 352.928,60.575 352.973,60.667 352.917 C 60.758 352.860,60.833 352.898,60.833 353.000 C 60.833 353.102,60.903 353.143,60.988 353.090 C 61.074 353.038,61.191 353.071,61.248 353.164 C 61.306 353.257,61.686 353.417,62.093 353.520 C 62.500 353.622,62.833 353.766,62.833 353.840 C 62.833 353.989,63.800 354.251,64.125 354.191 C 64.240 354.169,64.333 354.228,64.333 354.321 C 64.333 354.414,64.447 354.446,64.585 354.393 C 64.724 354.340,64.930 354.371,65.044 354.462 C 65.315 354.681,66.319 354.904,66.792 354.851 C 66.998 354.828,67.167 354.879,67.167 354.965 C 67.167 355.050,67.362 355.083,67.601 355.037 C 67.868 354.986,68.090 355.043,68.178 355.186 C 68.393 355.533,132.107 355.532,132.322 355.184 C 132.407 355.048,132.610 354.990,132.816 355.044 C 133.009 355.094,133.167 355.072,133.167 354.995 C 133.167 354.918,133.456 354.858,133.809 354.863 C 134.162 354.868,134.721 354.744,135.051 354.588 C 135.380 354.431,135.729 354.352,135.825 354.411 C 135.921 354.471,136.000 354.437,136.000 354.336 C 136.000 354.235,136.094 354.169,136.208 354.191 C 136.534 354.251,137.500 353.989,137.500 353.840 C 137.500 353.766,137.833 353.622,138.240 353.520 C 138.647 353.417,139.027 353.257,139.085 353.164 C 139.143 353.071,139.260 353.038,139.345 353.090 C 139.430 353.143,139.500 353.102,139.500 353.000 C 139.500 352.898,139.575 352.860,139.667 352.917 C 139.758 352.973,139.833 352.932,139.833 352.825 C 139.833 352.718,139.944 352.673,140.079 352.725 C 140.213 352.777,140.425 352.718,140.549 352.594 C 140.672 352.470,141.181 352.164,141.679 351.913 C 142.176 351.662,142.638 351.372,142.706 351.270 C 142.773 351.167,142.829 351.147,142.831 351.226 C 142.832 351.304,143.088 351.154,143.399 350.892 C 143.711 350.631,144.286 350.229,144.677 350.000 C 145.470 349.536,149.167 345.988,149.167 345.692 C 149.167 345.588,149.323 345.408,149.515 345.293 C 150.634 344.619,153.528 339.313,154.493 336.167 C 155.831 331.801,155.711 335.313,155.822 297.333 L 155.920 263.417 156.442 261.500 C 156.954 259.616,158.322 256.157,158.749 255.667 C 158.869 255.529,159.218 254.991,159.525 254.471 C 162.156 250.012,168.609 245.852,174.333 244.925 C 176.691 244.543,223.542 244.536,225.730 244.918 C 231.528 245.929,238.067 250.166,240.533 254.509 C 240.816 255.008,241.100 255.454,241.164 255.500 C 241.339 255.626,242.743 258.779,243.130 259.917 C 244.134 262.870,244.060 260.190,244.165 297.083 C 244.269 333.379,244.225 331.636,245.094 334.667 C 245.238 335.171,245.416 335.819,245.490 336.106 C 246.157 338.723,248.827 343.643,250.403 345.158 C 250.731 345.474,251.000 345.787,251.000 345.854 C 251.000 346.257,255.447 350.333,255.885 350.333 C 255.996 350.333,256.284 350.516,256.525 350.740 C 256.767 350.964,257.010 351.101,257.065 351.046 C 257.121 350.990,257.167 351.028,257.167 351.130 C 257.167 351.232,257.560 351.513,258.042 351.754 C 258.523 351.996,259.149 352.336,259.433 352.511 C 259.717 352.686,259.998 352.780,260.058 352.720 C 260.118 352.660,260.167 352.703,260.167 352.815 C 260.167 352.928,260.242 352.973,260.333 352.917 C 260.425 352.860,260.500 352.898,260.500 353.000 C 260.500 353.102,260.570 353.143,260.655 353.090 C 260.740 353.038,260.857 353.071,260.915 353.164 C 260.973 353.257,261.353 353.417,261.760 353.520 C 262.167 353.622,262.500 353.766,262.500 353.840 C 262.500 353.989,263.466 354.251,263.792 354.191 C 263.906 354.169,264.000 354.228,264.000 354.321 C 264.000 354.414,264.113 354.446,264.252 354.393 C 264.391 354.340,264.597 354.371,264.710 354.462 C 264.982 354.681,265.985 354.904,266.458 354.851 C 266.665 354.828,266.833 354.879,266.833 354.965 C 266.833 355.050,267.029 355.083,267.268 355.037 C 267.535 354.986,267.757 355.043,267.845 355.186 C 268.060 355.533,331.774 355.532,331.989 355.184 C 332.073 355.048,332.277 354.990,332.483 355.044 C 332.676 355.094,332.833 355.072,332.833 354.995 C 332.833 354.918,333.122 354.858,333.476 354.863 C 333.829 354.868,334.388 354.744,334.717 354.588 C 335.047 354.431,335.395 354.352,335.492 354.411 C 335.588 354.471,335.667 354.437,335.667 354.336 C 335.667 354.235,335.760 354.169,335.875 354.191 C 336.200 354.251,337.167 353.989,337.167 353.840 C 337.167 353.766,337.500 353.622,337.907 353.520 C 338.314 353.417,338.694 353.257,338.752 353.164 C 338.809 353.071,338.926 353.038,339.012 353.090 C 339.097 353.143,339.167 353.102,339.167 353.000 C 339.167 352.898,339.242 352.860,339.333 352.917 C 339.425 352.973,339.500 352.932,339.500 352.825 C 339.500 352.718,339.610 352.673,339.745 352.725 C 339.880 352.777,340.092 352.718,340.215 352.594 C 340.339 352.470,340.848 352.164,341.345 351.913 C 341.843 351.662,342.305 351.372,342.372 351.270 C 342.440 351.167,342.496 351.147,342.497 351.226 C 342.499 351.304,342.755 351.154,343.066 350.892 C 343.378 350.631,343.952 350.229,344.342 350.000 C 345.154 349.524,348.833 346.002,348.833 345.701 C 348.833 345.592,348.990 345.408,349.182 345.293 C 350.276 344.634,353.170 339.362,354.145 336.250 C 355.329 332.475,355.497 330.807,355.499 322.833 C 355.500 319.304,355.580 315.592,355.678 314.583 C 355.848 312.834,355.694 257.253,355.403 215.042 L 355.298 199.833 367.357 199.833 C 380.418 199.832,380.979 199.800,383.862 198.905 C 387.878 197.657,391.161 195.491,394.473 191.900 C 395.336 190.966,396.945 188.543,396.870 188.292 C 396.850 188.223,396.921 188.167,397.028 188.167 C 397.135 188.167,397.174 188.119,397.116 188.060 C 397.058 188.002,397.155 187.750,397.333 187.500 C 397.511 187.250,397.609 186.998,397.551 186.940 C 397.492 186.881,397.544 186.833,397.667 186.833 C 397.789 186.833,397.842 186.787,397.786 186.730 C 397.729 186.673,397.786 186.523,397.913 186.397 C 398.039 186.270,398.229 185.754,398.333 185.250 C 398.438 184.746,398.586 184.333,398.662 184.333 C 398.828 184.333,399.107 183.122,399.258 181.750 C 399.318 181.200,399.453 180.696,399.559 180.631 C 399.831 180.462,399.829 172.537,399.557 172.369 C 399.451 172.303,399.316 171.949,399.257 171.583 C 399.082 170.494,398.799 169.500,398.664 169.500 C 398.595 169.500,398.412 169.106,398.258 168.625 C 398.103 168.144,397.865 167.663,397.727 167.557 C 397.590 167.451,397.490 167.338,397.504 167.307 C 397.567 167.173,397.100 166.333,396.963 166.333 C 396.881 166.333,396.856 166.265,396.908 166.181 C 396.960 166.097,396.941 166.003,396.866 165.973 C 396.792 165.942,396.457 165.504,396.123 165.000 C 395.547 164.132,394.045 162.518,392.232 160.820 C 390.470 159.170,387.176 156.333,387.021 156.333 C 386.931 156.333,386.646 156.084,386.387 155.778 C 386.007 155.330,326.900 103.294,324.580 101.365 C 324.215 101.062,323.579 100.492,323.167 100.099 C 322.403 99.370,318.605 96.057,317.445 95.106 C 317.093 94.819,316.512 94.283,316.153 93.917 C 315.794 93.550,315.500 93.298,315.500 93.355 C 315.500 93.455,315.146 93.147,313.464 91.588 C 313.071 91.224,312.696 90.942,312.631 90.961 C 312.565 90.980,312.302 90.735,312.047 90.415 C 311.792 90.095,311.525 89.833,311.454 89.833 C 311.383 89.833,311.083 89.613,310.787 89.343 C 310.359 88.952,305.358 84.545,299.507 79.403 C 299.099 79.044,298.510 78.506,298.199 78.208 C 297.888 77.910,297.600 77.667,297.560 77.667 C 297.519 77.667,296.983 77.186,296.368 76.599 C 295.753 76.012,294.864 75.230,294.393 74.860 C 293.922 74.490,293.285 73.932,292.977 73.619 C 292.669 73.307,291.367 72.136,290.083 71.019 C 288.800 69.901,287.262 68.550,286.667 68.017 C 286.071 67.484,271.483 54.669,254.250 39.539 C 237.017 24.409,222.692 11.819,222.417 11.561 C 221.208 10.429,217.465 7.157,216.248 6.169 C 215.516 5.575,214.777 4.914,214.606 4.702 C 214.435 4.490,214.262 4.349,214.221 4.390 C 214.180 4.431,213.953 4.287,213.718 4.068 C 213.483 3.850,213.000 3.544,212.645 3.387 C 212.290 3.231,212.000 3.038,212.000 2.958 C 212.000 2.879,211.925 2.860,211.833 2.917 C 211.742 2.973,211.667 2.928,211.667 2.815 C 211.667 2.703,211.619 2.659,211.560 2.717 C 211.502 2.776,211.258 2.686,211.019 2.519 C 210.779 2.351,210.490 2.247,210.375 2.288 C 210.260 2.328,210.167 2.275,210.167 2.171 C 210.167 2.066,210.098 2.023,210.014 2.075 C 209.930 2.126,209.834 2.087,209.801 1.986 C 209.768 1.886,209.372 1.735,208.921 1.651 C 208.470 1.567,208.060 1.437,208.009 1.362 C 207.852 1.130,207.309 0.988,205.924 0.814 C 205.191 0.722,204.537 0.560,204.472 0.454 C 204.351 0.259,197.750 0.119,196.208 0.279 " stroke="none" fill="#7484a4" fill-rule="evenodd"></path><path id="path1" d="M194.083 0.667 C 193.390 0.843,194.072 0.851,194.917 0.676 C 195.477 0.560,195.504 0.538,195.083 0.539 C 194.808 0.539,194.358 0.597,194.083 0.667 M204.917 0.667 C 205.192 0.737,205.604 0.794,205.833 0.794 C 206.205 0.794,206.196 0.780,205.750 0.667 C 205.475 0.597,205.063 0.539,204.833 0.539 C 204.462 0.539,204.471 0.553,204.917 0.667 M191.250 1.500 C 191.040 1.590,191.009 1.643,191.167 1.643 C 191.304 1.643,191.567 1.579,191.750 1.500 C 191.960 1.410,191.991 1.357,191.833 1.357 C 191.696 1.357,191.433 1.421,191.250 1.500 M208.250 1.500 C 208.433 1.579,208.696 1.643,208.833 1.643 C 208.991 1.643,208.960 1.590,208.750 1.500 C 208.567 1.421,208.304 1.357,208.167 1.357 C 208.009 1.357,208.040 1.410,208.250 1.500 M214.847 5.042 C 214.885 5.065,215.142 5.271,215.417 5.500 L 215.917 5.917 215.513 5.458 C 215.290 5.206,215.034 5.000,214.943 5.000 C 214.852 5.000,214.809 5.019,214.847 5.042 M1.538 169.042 C 1.254 169.826,1.293 170.039,1.594 169.346 C 1.730 169.032,1.819 168.708,1.792 168.626 C 1.765 168.544,1.650 168.731,1.538 169.042 M0.759 171.593 C 0.697 171.927,0.679 172.234,0.719 172.275 C 0.760 172.316,0.845 172.075,0.907 171.741 C 0.970 171.406,0.988 171.099,0.947 171.059 C 0.907 171.018,0.822 171.258,0.759 171.593 M399.200 171.250 C 399.200 171.433,399.260 171.771,399.333 172.000 C 399.439 172.330,399.467 172.347,399.467 172.083 C 399.467 171.900,399.407 171.563,399.333 171.333 C 399.228 171.003,399.200 170.986,399.200 171.250 M399.264 181.514 C 399.201 181.986,399.184 182.406,399.225 182.447 C 399.266 182.488,399.352 182.137,399.417 181.667 C 399.481 181.197,399.499 180.777,399.456 180.734 C 399.413 180.691,399.327 181.042,399.264 181.514 M0.678 182.681 C 0.685 182.902,0.758 183.233,0.841 183.417 C 0.946 183.649,0.961 183.548,0.891 183.083 C 0.773 182.309,0.661 182.098,0.678 182.681 M398.429 184.762 C 398.367 185.006,398.349 185.238,398.389 185.277 C 398.428 185.317,398.510 185.149,398.571 184.905 C 398.633 184.661,398.651 184.429,398.611 184.389 C 398.572 184.350,398.490 184.518,398.429 184.762 M1.354 185.000 C 1.351 185.137,1.451 185.475,1.577 185.750 C 1.872 186.394,1.876 186.094,1.583 185.333 C 1.460 185.012,1.356 184.862,1.354 185.000 M251.500 346.552 C 251.500 346.581,251.744 346.825,252.042 347.094 L 252.583 347.583 252.094 347.042 C 251.638 346.537,251.500 346.423,251.500 346.552 " stroke="none" fill="#7884a4" fill-rule="evenodd"></path><path id="path2" d="M194.083 0.667 C 193.390 0.843,194.072 0.851,194.917 0.676 C 195.477 0.560,195.504 0.538,195.083 0.539 C 194.808 0.539,194.358 0.597,194.083 0.667 M204.917 0.667 C 205.192 0.737,205.604 0.794,205.833 0.794 C 206.205 0.794,206.196 0.780,205.750 0.667 C 205.475 0.597,205.063 0.539,204.833 0.539 C 204.462 0.539,204.471 0.553,204.917 0.667 M191.250 1.500 C 191.040 1.590,191.009 1.643,191.167 1.643 C 191.304 1.643,191.567 1.579,191.750 1.500 C 191.960 1.410,191.991 1.357,191.833 1.357 C 191.696 1.357,191.433 1.421,191.250 1.500 M208.250 1.500 C 208.433 1.579,208.696 1.643,208.833 1.643 C 208.991 1.643,208.960 1.590,208.750 1.500 C 208.567 1.421,208.304 1.357,208.167 1.357 C 208.009 1.357,208.040 1.410,208.250 1.500 M214.847 5.042 C 214.885 5.065,215.142 5.271,215.417 5.500 L 215.917 5.917 215.513 5.458 C 215.290 5.206,215.034 5.000,214.943 5.000 C 214.852 5.000,214.809 5.019,214.847 5.042 M1.538 169.042 C 1.254 169.826,1.293 170.039,1.594 169.346 C 1.730 169.032,1.819 168.708,1.792 168.626 C 1.765 168.544,1.650 168.731,1.538 169.042 M0.759 171.593 C 0.697 171.927,0.679 172.234,0.719 172.275 C 0.760 172.316,0.845 172.075,0.907 171.741 C 0.970 171.406,0.988 171.099,0.947 171.059 C 0.907 171.018,0.822 171.258,0.759 171.593 M399.200 171.250 C 399.200 171.433,399.260 171.771,399.333 172.000 C 399.439 172.330,399.467 172.347,399.467 172.083 C 399.467 171.900,399.407 171.563,399.333 171.333 C 399.228 171.003,399.200 170.986,399.200 171.250 M399.264 181.514 C 399.201 181.986,399.184 182.406,399.225 182.447 C 399.266 182.488,399.352 182.137,399.417 181.667 C 399.481 181.197,399.499 180.777,399.456 180.734 C 399.413 180.691,399.327 181.042,399.264 181.514 M0.678 182.681 C 0.685 182.902,0.758 183.233,0.841 183.417 C 0.946 183.649,0.961 183.548,0.891 183.083 C 0.773 182.309,0.661 182.098,0.678 182.681 M398.429 184.762 C 398.367 185.006,398.349 185.238,398.389 185.277 C 398.428 185.317,398.510 185.149,398.571 184.905 C 398.633 184.661,398.651 184.429,398.611 184.389 C 398.572 184.350,398.490 184.518,398.429 184.762 M1.354 185.000 C 1.351 185.137,1.451 185.475,1.577 185.750 C 1.872 186.394,1.876 186.094,1.583 185.333 C 1.460 185.012,1.356 184.862,1.354 185.000 M251.500 346.552 C 251.500 346.581,251.744 346.825,252.042 347.094 L 252.583 347.583 252.094 347.042 C 251.638 346.537,251.500 346.423,251.500 346.552 " stroke="none" fill="#7884a4" fill-rule="evenodd"></path><path id="path3" d="M194.083 0.667 C 193.390 0.843,194.072 0.851,194.917 0.676 C 195.477 0.560,195.504 0.538,195.083 0.539 C 194.808 0.539,194.358 0.597,194.083 0.667 M204.917 0.667 C 205.192 0.737,205.604 0.794,205.833 0.794 C 206.205 0.794,206.196 0.780,205.750 0.667 C 205.475 0.597,205.063 0.539,204.833 0.539 C 204.462 0.539,204.471 0.553,204.917 0.667 M191.250 1.500 C 191.040 1.590,191.009 1.643,191.167 1.643 C 191.304 1.643,191.567 1.579,191.750 1.500 C 191.960 1.410,191.991 1.357,191.833 1.357 C 191.696 1.357,191.433 1.421,191.250 1.500 M208.250 1.500 C 208.433 1.579,208.696 1.643,208.833 1.643 C 208.991 1.643,208.960 1.590,208.750 1.500 C 208.567 1.421,208.304 1.357,208.167 1.357 C 208.009 1.357,208.040 1.410,208.250 1.500 M214.847 5.042 C 214.885 5.065,215.142 5.271,215.417 5.500 L 215.917 5.917 215.513 5.458 C 215.290 5.206,215.034 5.000,214.943 5.000 C 214.852 5.000,214.809 5.019,214.847 5.042 M1.538 169.042 C 1.254 169.826,1.293 170.039,1.594 169.346 C 1.730 169.032,1.819 168.708,1.792 168.626 C 1.765 168.544,1.650 168.731,1.538 169.042 M0.759 171.593 C 0.697 171.927,0.679 172.234,0.719 172.275 C 0.760 172.316,0.845 172.075,0.907 171.741 C 0.970 171.406,0.988 171.099,0.947 171.059 C 0.907 171.018,0.822 171.258,0.759 171.593 M399.200 171.250 C 399.200 171.433,399.260 171.771,399.333 172.000 C 399.439 172.330,399.467 172.347,399.467 172.083 C 399.467 171.900,399.407 171.563,399.333 171.333 C 399.228 171.003,399.200 170.986,399.200 171.250 M399.264 181.514 C 399.201 181.986,399.184 182.406,399.225 182.447 C 399.266 182.488,399.352 182.137,399.417 181.667 C 399.481 181.197,399.499 180.777,399.456 180.734 C 399.413 180.691,399.327 181.042,399.264 181.514 M0.678 182.681 C 0.685 182.902,0.758 183.233,0.841 183.417 C 0.946 183.649,0.961 183.548,0.891 183.083 C 0.773 182.309,0.661 182.098,0.678 182.681 M398.429 184.762 C 398.367 185.006,398.349 185.238,398.389 185.277 C 398.428 185.317,398.510 185.149,398.571 184.905 C 398.633 184.661,398.651 184.429,398.611 184.389 C 398.572 184.350,398.490 184.518,398.429 184.762 M1.354 185.000 C 1.351 185.137,1.451 185.475,1.577 185.750 C 1.872 186.394,1.876 186.094,1.583 185.333 C 1.460 185.012,1.356 184.862,1.354 185.000 M251.500 346.552 C 251.500 346.581,251.744 346.825,252.042 347.094 L 252.583 347.583 252.094 347.042 C 251.638 346.537,251.500 346.423,251.500 346.552 " stroke="none" fill="#7884a4" fill-rule="evenodd"></path><path id="path4" d="M194.083 0.667 C 193.390 0.843,194.072 0.851,194.917 0.676 C 195.477 0.560,195.504 0.538,195.083 0.539 C 194.808 0.539,194.358 0.597,194.083 0.667 M204.917 0.667 C 205.192 0.737,205.604 0.794,205.833 0.794 C 206.205 0.794,206.196 0.780,205.750 0.667 C 205.475 0.597,205.063 0.539,204.833 0.539 C 204.462 0.539,204.471 0.553,204.917 0.667 M191.250 1.500 C 191.040 1.590,191.009 1.643,191.167 1.643 C 191.304 1.643,191.567 1.579,191.750 1.500 C 191.960 1.410,191.991 1.357,191.833 1.357 C 191.696 1.357,191.433 1.421,191.250 1.500 M208.250 1.500 C 208.433 1.579,208.696 1.643,208.833 1.643 C 208.991 1.643,208.960 1.590,208.750 1.500 C 208.567 1.421,208.304 1.357,208.167 1.357 C 208.009 1.357,208.040 1.410,208.250 1.500 M214.847 5.042 C 214.885 5.065,215.142 5.271,215.417 5.500 L 215.917 5.917 215.513 5.458 C 215.290 5.206,215.034 5.000,214.943 5.000 C 214.852 5.000,214.809 5.019,214.847 5.042 M1.538 169.042 C 1.254 169.826,1.293 170.039,1.594 169.346 C 1.730 169.032,1.819 168.708,1.792 168.626 C 1.765 168.544,1.650 168.731,1.538 169.042 M0.759 171.593 C 0.697 171.927,0.679 172.234,0.719 172.275 C 0.760 172.316,0.845 172.075,0.907 171.741 C 0.970 171.406,0.988 171.099,0.947 171.059 C 0.907 171.018,0.822 171.258,0.759 171.593 M399.200 171.250 C 399.200 171.433,399.260 171.771,399.333 172.000 C 399.439 172.330,399.467 172.347,399.467 172.083 C 399.467 171.900,399.407 171.563,399.333 171.333 C 399.228 171.003,399.200 170.986,399.200 171.250 M399.264 181.514 C 399.201 181.986,399.184 182.406,399.225 182.447 C 399.266 182.488,399.352 182.137,399.417 181.667 C 399.481 181.197,399.499 180.777,399.456 180.734 C 399.413 180.691,399.327 181.042,399.264 181.514 M0.678 182.681 C 0.685 182.902,0.758 183.233,0.841 183.417 C 0.946 183.649,0.961 183.548,0.891 183.083 C 0.773 182.309,0.661 182.098,0.678 182.681 M398.429 184.762 C 398.367 185.006,398.349 185.238,398.389 185.277 C 398.428 185.317,398.510 185.149,398.571 184.905 C 398.633 184.661,398.651 184.429,398.611 184.389 C 398.572 184.350,398.490 184.518,398.429 184.762 M1.354 185.000 C 1.351 185.137,1.451 185.475,1.577 185.750 C 1.872 186.394,1.876 186.094,1.583 185.333 C 1.460 185.012,1.356 184.862,1.354 185.000 M251.500 346.552 C 251.500 346.581,251.744 346.825,252.042 347.094 L 252.583 347.583 252.094 347.042 C 251.638 346.537,251.500 346.423,251.500 346.552 " stroke="none" fill="#7884a4" fill-rule="evenodd"></path></g></svg>