<svg id="svg" version="1.1" xmlns="http://www.w3.org/2000/svg" xmlns:xlink="http://www.w3.org/1999/xlink" width="400" height="342.17156568686266" viewBox="0, 0, 400,342.17156568686266"><g id="svgg"><path id="path0" d="M104.259 0.386 C 94.887 1.321,91.179 1.911,84.823 3.476 C 35.467 15.630,1.357 58.797,0.352 110.378 C -0.280 142.808,8.471 168.980,27.562 191.754 C 32.156 197.234,28.761 194.024,121.178 280.273 C 181.658 336.716,179.488 334.702,181.277 336.039 C 191.577 343.734,208.423 343.734,218.723 336.039 C 220.493 334.717,218.788 336.298,273.302 285.426 C 369.831 195.345,367.893 197.176,372.438 191.754 C 387.147 174.207,395.799 154.051,399.075 129.694 C 399.689 125.132,399.839 105.298,399.296 100.540 C 391.574 32.859,328.526 -12.127,262.751 3.111 C 240.366 8.298,224.862 17.372,205.272 36.753 L 199.986 41.983 195.434 37.413 C 172.837 14.727,152.709 4.409,124.055 0.824 C 121.202 0.467,106.669 0.146,104.259 0.386 " stroke="none" fill="#3404d4" fill-rule="evenodd"></path><path id="path1" d="" stroke="none" fill="#3804d4" fill-rule="evenodd"></path><path id="path2" d="" stroke="none" fill="#3804d4" fill-rule="evenodd"></path><path id="path3" d="" stroke="none" fill="#3804d4" fill-rule="evenodd"></path><path id="path4" d="" stroke="none" fill="#3804d4" fill-rule="evenodd"></path></g></svg>