<svg id="svg" version="1.1" xmlns="http://www.w3.org/2000/svg" xmlns:xlink="http://www.w3.org/1999/xlink" width="400" height="342.18896164639847" viewBox="0, 0, 400,342.18896164639847"><g id="svgg"><path id="path0" d="M102.654 0.667 C 48.785 5.183,7.007 46.274,0.803 100.842 C 0.386 104.513,0.315 122.620,0.703 126.473 C 3.603 155.280,15.338 180.234,35.114 199.648 C 37.019 201.517,176.650 331.881,179.225 334.194 C 190.490 344.312,209.510 344.312,220.775 334.194 C 223.350 331.881,362.981 201.517,364.886 199.648 C 384.660 180.236,396.398 155.277,399.297 126.473 C 399.685 122.620,399.614 104.513,399.197 100.842 C 391.197 30.475,324.339 -14.638,256.837 4.785 C 237.535 10.339,223.056 19.266,206.221 35.991 L 200.000 42.171 193.779 35.991 C 184.390 26.664,179.545 22.654,171.562 17.605 C 151.156 4.698,126.593 -1.340,102.654 0.667 " stroke="none" fill="#7484a4" fill-rule="evenodd"></path><path id="path1" d="" stroke="none" fill="#7884a4" fill-rule="evenodd"></path><path id="path2" d="" stroke="none" fill="#7884a4" fill-rule="evenodd"></path><path id="path3" d="" stroke="none" fill="#7884a4" fill-rule="evenodd"></path><path id="path4" d="" stroke="none" fill="#7884a4" fill-rule="evenodd"></path></g></svg>